ffmpeg started on 2016-12-09 at 01:10:46
Report written to "Output/x264/results/ffmpeg/sintelveryslow13000k.log"
Command line:
Tools/ffmpeg/ffmpeg -benchmark -y -i Input/y4m/sintel.y4m -c:v libx264 -preset veryslow -b:v 13000k -an Output/x264/encoded/sintelveryslow13000k.mkv
ffmpeg version N-82227-gdb23fde Copyright (c) 2000-2016 the FFmpeg developers
  built with gcc 5.4.0 (Ubuntu 5.4.0-6ubuntu1~16.04.2) 20160609
  configuration: --prefix=/home/jaroslav/ffmpeg_build --pkg-config-flags=--static --extra-cflags=-I/home/jaroslav/ffmpeg_build/include --extra-ldflags=-L/home/jaroslav/ffmpeg_build/lib --bindir=/home/jaroslav/bin --enable-gpl --enable-libass --enable-libfdk-aac --enable-libfreetype --enable-libmp3lame --enable-libopus --enable-libtheora --enable-libvorbis --enable-libvpx --enable-libx264 --enable-libx265 --enable-nvenc --enable-libmfx --enable-libxvid --enable-libgsm --enable-libopencore-amrnb --enable-version3 --enable-nonfree
  libavutil      55. 35.100 / 55. 35.100
  libavcodec     57. 66.101 / 57. 66.101
  libavformat    57. 57.100 / 57. 57.100
  libavdevice    57.  2.100 / 57.  2.100
  libavfilter     6. 66.100 /  6. 66.100
  libswscale      4.  3.100 /  4.  3.100
  libswresample   2.  4.100 /  2.  4.100
  libpostproc    54.  2.100 / 54.  2.100
Input #0, yuv4mpegpipe, from 'Input/y4m/sintel.y4m':
  Duration: 00:00:20.83, start: 0.000000, bitrate: 2057307 kb/s
    Stream #0:0: Video: rawvideo (I420 / 0x30323449), yuv420p(progressive), 4096x1744, SAR 1:1 DAR 256:109, 24 fps, 24 tbr, 24 tbn, 24 tbc
[libx264 @ 0x2d331c0] using SAR=1/1
[libx264 @ 0x2d331c0] DPB size (16 frames, 446464 mbs) > level limit (6 frames, 184320 mbs)
[libx264 @ 0x2d331c0] using cpu capabilities: MMX2 SSE2Fast SSSE3 SSE4.2 AVX FMA3 AVX2 LZCNT BMI2
[libx264 @ 0x2d331c0] profile High, level 5.2
[libx264 @ 0x2d331c0] 264 - core 148 - H.264/MPEG-4 AVC codec - Copyleft 2003-2016 - http://www.videolan.org/x264.html - options: cabac=1 ref=16 deblock=1:0:0 analyse=0x3:0x133 me=umh subme=10 psy=1 psy_rd=1.00:0.00 mixed_ref=1 me_range=24 chroma_me=1 trellis=2 8x8dct=1 cqm=0 deadzone=21,11 fast_pskip=1 chroma_qp_offset=-2 threads=6 lookahead_threads=1 sliced_threads=0 nr=0 decimate=1 interlaced=0 bluray_compat=0 constrained_intra=0 bframes=8 b_pyramid=2 b_adapt=2 b_bias=0 direct=3 weightb=1 open_gop=0 weightp=2 keyint=250 keyint_min=24 scenecut=40 intra_refresh=0 rc_lookahead=60 rc=abr mbtree=1 bitrate=13000 ratetol=1.0 qcomp=0.60 qpmin=0 qpmax=69 qpstep=4 ip_ratio=1.40 aq=1:1.00
Output #0, matroska, to 'Output/x264/encoded/sintelveryslow13000k.mkv':
  Metadata:
    encoder         : Lavf57.57.100
    Stream #0:0: Video: h264 (libx264) (H264 / 0x34363248), yuv420p, 4096x1744 [SAR 1:1 DAR 256:109], q=-1--1, 13000 kb/s, 24 fps, 1k tbn, 24 tbc
    Metadata:
      encoder         : Lavc57.66.101 libx264
    Side data:
      cpb: bitrate max/min/avg: 0/0/13000000 buffer size: 0 vbv_delay: -1
Stream mapping:
  Stream #0:0 -> #0:0 (rawvideo (native) -> h264 (libx264))
Press [q] to stop, [?] for help
frame=   10 fps=0.0 q=0.0 size=       0kB time=00:00:00.00 bitrate=N/A speed=   0x    frame=   16 fps= 14 q=0.0 size=       0kB time=00:00:00.00 bitrate=N/A speed=   0x    frame=   24 fps= 14 q=0.0 size=       0kB time=00:00:00.00 bitrate=N/A speed=   0x    frame=   32 fps= 13 q=0.0 size=       0kB time=00:00:00.00 bitrate=N/A speed=   0x    frame=   38 fps= 13 q=0.0 size=       0kB time=00:00:00.00 bitrate=N/A speed=   0x    frame=   40 fps=6.2 q=0.0 size=       0kB time=00:00:00.00 bitrate=N/A speed=   0x    frame=   41 fps=4.2 q=0.0 size=       0kB time=00:00:00.00 bitrate=N/A speed=   0x    frame=   42 fps=3.5 q=0.0 size=       0kB time=00:00:00.00 bitrate=N/A speed=   0x    frame=   50 fps=3.9 q=0.0 size=       0kB time=00:00:00.00 bitrate=N/A speed=   0x    frame=   56 fps=4.2 q=0.0 size=       0kB time=00:00:00.00 bitrate=N/A speed=   0x    frame=   65 fps=4.7 q=0.0 size=       0kB time=00:00:00.00 bitrate=N/A speed=   0x    frame=   72 fps=2.3 q=0.0 size=       0kB time=00:00:00.00 bitrate=N/A speed=   0x    frame=   76 fps=2.3 q=22.0 size=       1kB time=-00:00:00.08 bitrate=N/A speed=N/A    frame=   78 fps=2.2 q=31.0 size=       1kB time=00:00:00.00 bitrate=5888.0kbits/s speed=2.8e-05x    frame=   79 fps=2.2 q=27.0 size=       1kB time=00:00:00.04 bitrate= 136.9kbits/s speed=0.00118x    frame=   80 fps=2.1 q=39.0 size=       1kB time=00:00:00.08 bitrate=  70.1kbits/s speed=0.00225x    frame=   81 fps=2.1 q=34.0 size=       1kB time=00:00:00.12 bitrate=  46.7kbits/s speed=0.0032x    frame=   82 fps=2.0 q=36.0 size=       1kB time=00:00:00.16 bitrate=  35.0kbits/s speed=0.00419x    frame=   83 fps=2.0 q=39.0 size=       1kB time=00:00:00.20 bitrate=  28.2kbits/s speed=0.00511x    frame=   87 fps=2.0 q=39.0 size=       1kB time=00:00:00.37 bitrate=  15.7kbits/s speed=0.00868x    frame=   89 fps=2.0 q=39.0 size=       1kB time=00:00:00.45 bitrate=  12.8kbits/s speed=0.0104x    frame=   90 fps=2.0 q=39.0 size=       1kB time=00:00:00.50 bitrate=  11.8kbits/s speed=0.0112x    frame=   91 fps=2.0 q=39.0 size=       1kB time=00:00:00.54 bitrate=  10.8kbits/s speed=0.0119x    frame=   92 fps=2.0 q=39.0 size=       1kB time=00:00:00.58 bitrate=  10.1kbits/s speed=0.0124x    frame=   93 fps=1.9 q=39.0 size=       1kB time=00:00:00.62 bitrate=   9.4kbits/s speed=0.0127x    frame=   95 fps=1.9 q=39.0 size=       1kB time=00:00:00.70 bitrate=   8.3kbits/s speed=0.014x    frame=   96 fps=1.9 q=39.0 size=       1kB time=00:00:00.75 bitrate=   7.8kbits/s speed=0.0145x    frame=   97 fps=1.8 q=38.0 size=       1kB time=00:00:00.79 bitrate=   7.4kbits/s speed=0.015x    frame=   98 fps=1.8 q=38.0 size=       1kB time=00:00:00.83 bitrate=   7.1kbits/s speed=0.0155x    frame=   99 fps=1.8 q=38.0 size=       1kB time=00:00:00.87 bitrate=   6.7kbits/s speed=0.0157x    frame=  100 fps=1.8 q=38.0 size=       1kB time=00:00:00.91 bitrate=   6.4kbits/s speed=0.0161x    frame=  101 fps=1.7 q=38.0 size=       1kB time=00:00:00.95 bitrate=   6.1kbits/s speed=0.0164x    frame=  102 fps=1.7 q=38.0 size=       1kB time=00:00:01.00 bitrate=   5.9kbits/s speed=0.0169x    frame=  104 fps=1.7 q=38.0 size=       1kB time=00:00:01.08 bitrate=   5.4kbits/s speed=0.018x    frame=  105 fps=1.7 q=37.0 size=       1kB time=00:00:01.12 bitrate=   5.2kbits/s speed=0.0184x    frame=  106 fps=1.7 q=37.0 size=       1kB time=00:00:01.16 bitrate=   5.0kbits/s speed=0.0185x    frame=  107 fps=1.7 q=37.0 size=       1kB time=00:00:01.20 bitrate=   4.9kbits/s speed=0.0187x    frame=  108 fps=1.6 q=37.0 size=       1kB time=00:00:01.25 bitrate=   4.7kbits/s speed=0.0191x    frame=  109 fps=1.6 q=37.0 size=       1kB time=00:00:01.29 bitrate=   4.6kbits/s speed=0.0192x    frame=  110 fps=1.6 q=37.0 size=       1kB time=00:00:01.33 bitrate=   4.4kbits/s speed=0.0196x    frame=  111 fps=1.6 q=37.0 size=       1kB time=00:00:01.37 bitrate=   4.3kbits/s speed=0.0199x    frame=  112 fps=1.6 q=37.0 size=       1kB time=00:00:01.41 bitrate=   4.2kbits/s speed=0.0201x    frame=  113 fps=1.6 q=37.0 size=       1kB time=00:00:01.45 bitrate=   4.0kbits/s speed=0.0203x    frame=  114 fps=1.6 q=37.0 size=       1kB time=00:00:01.50 bitrate=   3.9kbits/s speed=0.0207x    frame=  115 fps=1.6 q=36.0 size=       1kB time=00:00:01.54 bitrate=   3.8kbits/s speed=0.0209x    frame=  116 fps=1.6 q=36.0 size=       1kB time=00:00:01.58 bitrate=   3.7kbits/s speed=0.0213x    frame=  117 fps=1.6 q=36.0 size=       1kB time=00:00:01.62 bitrate=   3.6kbits/s speed=0.0216x    frame=  118 fps=1.6 q=36.0 size=       1kB time=00:00:01.66 bitrate=   3.5kbits/s speed=0.0219x    frame=  119 fps=1.5 q=36.0 size=       1kB time=00:00:01.70 bitrate=   3.4kbits/s speed=0.0221x    frame=  120 fps=1.5 q=36.0 size=       1kB time=00:00:01.75 bitrate=   3.4kbits/s speed=0.0224x    frame=  121 fps=1.5 q=36.0 size=       1kB time=00:00:01.79 bitrate=   3.3kbits/s speed=0.0225x    frame=  122 fps=1.5 q=36.0 size=       1kB time=00:00:01.83 bitrate=   3.2kbits/s speed=0.0227x    frame=  123 fps=1.5 q=36.0 size=       1kB time=00:00:01.87 bitrate=   3.1kbits/s speed=0.0231x    frame=  124 fps=1.5 q=36.0 size=       1kB time=00:00:01.91 bitrate=   3.1kbits/s speed=0.0235x    frame=  125 fps=1.5 q=35.0 size=       1kB time=00:00:01.95 bitrate=   3.0kbits/s speed=0.0236x    frame=  126 fps=1.5 q=35.0 size=       1kB time=00:00:02.00 bitrate=   2.9kbits/s speed=0.0239x    frame=  127 fps=1.5 q=35.0 size=       1kB time=00:00:02.04 bitrate=   2.9kbits/s speed=0.024x    frame=  128 fps=1.5 q=35.0 size=       1kB time=00:00:02.08 bitrate=   2.8kbits/s speed=0.024x    frame=  129 fps=1.5 q=35.0 size=       1kB time=00:00:02.12 bitrate=   2.8kbits/s speed=0.0241x    frame=  130 fps=1.4 q=35.0 size=       1kB time=00:00:02.16 bitrate=   2.7kbits/s speed=0.0241x    frame=  131 fps=1.4 q=35.0 size=       1kB time=00:00:02.20 bitrate=   2.7kbits/s speed=0.0243x    frame=  132 fps=1.4 q=35.0 size=       1kB time=00:00:02.25 bitrate=   2.6kbits/s speed=0.0244x    frame=  133 fps=1.4 q=35.0 size=       1kB time=00:00:02.29 bitrate=   2.6kbits/s speed=0.0247x    frame=  134 fps=1.4 q=35.0 size=       1kB time=00:00:02.33 bitrate=   2.5kbits/s speed=0.0247x    frame=  135 fps=1.4 q=35.0 size=       1kB time=00:00:02.37 bitrate=   2.5kbits/s speed=0.0249x    frame=  136 fps=1.4 q=35.0 size=       1kB time=00:00:02.41 bitrate=   2.4kbits/s speed=0.0247x    frame=  137 fps=1.4 q=35.0 size=       1kB time=00:00:02.45 bitrate=   2.4kbits/s speed=0.0249x    frame=  138 fps=1.4 q=35.0 size=       1kB time=00:00:02.50 bitrate=   2.4kbits/s speed=0.025x    frame=  139 fps=1.4 q=35.0 size=       1kB time=00:00:02.54 bitrate=   2.3kbits/s speed=0.0252x    frame=  140 fps=1.4 q=35.0 size=    5154kB time=00:00:02.58 bitrate=16338.9kbits/s speed=0.0253x    frame=  141 fps=1.4 q=35.0 size=    5154kB time=00:00:02.62 bitrate=16077.6kbits/s speed=0.0255x    frame=  142 fps=1.3 q=35.0 size=    5154kB time=00:00:02.66 bitrate=15824.5kbits/s speed=0.025x    frame=  143 fps=1.3 q=35.0 size=    5154kB time=00:00:02.70 bitrate=15585.0kbits/s speed=0.0252x    frame=  144 fps=1.3 q=35.0 size=    5154kB time=00:00:02.75 bitrate=15347.1kbits/s speed=0.0255x    frame=  145 fps=1.3 q=35.0 size=    5154kB time=00:00:02.79 bitrate=15116.3kbits/s speed=0.0256x    frame=  146 fps=1.3 q=35.0 size=    5154kB time=00:00:02.83 bitrate=14897.6kbits/s speed=0.0257x    frame=  147 fps=1.3 q=35.0 size=    5154kB time=00:00:02.87 bitrate=14680.1kbits/s speed=0.0259x    frame=  148 fps=1.3 q=35.0 size=    5154kB time=00:00:02.91 bitrate=14468.8kbits/s speed=0.0257x    frame=  149 fps=1.3 q=34.0 size=    5154kB time=00:00:02.95 bitrate=14268.3kbits/s speed=0.0257x    frame=  150 fps=1.3 q=34.0 size=    5154kB time=00:00:03.00 bitrate=14068.6kbits/s speed=0.0259x    frame=  151 fps=1.3 q=34.0 size=    5154kB time=00:00:03.04 bitrate=13874.4kbits/s speed=0.0261x    frame=  152 fps=1.3 q=34.0 size=    5154kB time=00:00:03.08 bitrate=13690.0kbits/s speed=0.0261x    frame=  153 fps=1.3 q=34.0 size=    5154kB time=00:00:03.12 bitrate=13506.0kbits/s speed=0.0262x    frame=  154 fps=1.3 q=34.0 size=    5154kB time=00:00:03.16 bitrate=13327.0kbits/s speed=0.0263x    frame=  155 fps=1.3 q=34.0 size=    5154kB time=00:00:03.20 bitrate=13156.7kbits/s speed=0.0261x    frame=  156 fps=1.3 q=34.0 size=    5154kB time=00:00:03.25 bitrate=12986.7kbits/s speed=0.0263x    frame=  157 fps=1.3 q=34.0 size=    5154kB time=00:00:03.29 bitrate=12821.1kbits/s speed=0.0264x    frame=  158 fps=1.3 q=34.0 size=    5154kB time=00:00:03.33 bitrate=12663.4kbits/s speed=0.0265x    frame=  159 fps=1.3 q=34.0 size=    5154kB time=00:00:03.37 bitrate=12505.9kbits/s speed=0.0266x    frame=  160 fps=1.3 q=34.0 size=    5154kB time=00:00:03.41 bitrate=12352.2kbits/s speed=0.0267x    frame=  161 fps=1.2 q=34.0 size=    5154kB time=00:00:03.45 bitrate=12205.8kbits/s speed=0.0265x    frame=  162 fps=1.2 q=34.0 size=    5154kB time=00:00:03.50 bitrate=12059.4kbits/s speed=0.0267x    frame=  163 fps=1.2 q=34.0 size=    5154kB time=00:00:03.54 bitrate=11916.4kbits/s speed=0.0268x    frame=  164 fps=1.2 q=34.0 size=    5154kB time=00:00:03.58 bitrate=11780.1kbits/s speed=0.0269x    frame=  165 fps=1.2 q=34.0 size=    5154kB time=00:00:03.62 bitrate=11643.6kbits/s speed=0.027x    frame=  166 fps=1.2 q=34.0 size=    5154kB time=00:00:03.66 bitrate=11510.3kbits/s speed=0.0271x    frame=  167 fps=1.2 q=34.0 size=    5154kB time=00:00:03.70 bitrate=11383.1kbits/s speed=0.027x    frame=  168 fps=1.2 q=33.0 size=    5154kB time=00:00:03.75 bitrate=11255.6kbits/s speed=0.0271x    frame=  169 fps=1.2 q=33.0 size=    5154kB time=00:00:03.79 bitrate=11131.0kbits/s speed=0.0272x    frame=  170 fps=1.2 q=33.0 size=    5154kB time=00:00:03.83 bitrate=11012.0kbits/s speed=0.0274x    frame=  171 fps=1.2 q=33.0 size=    5154kB time=00:00:03.87 bitrate=10892.6kbits/s speed=0.0274x    frame=  172 fps=1.2 q=33.0 size=    5154kB time=00:00:03.91 bitrate=10775.9kbits/s speed=0.0274x    frame=  173 fps=1.2 q=33.0 size=    5154kB time=00:00:03.95 bitrate=10664.3kbits/s speed=0.0276x    frame=  174 fps=1.2 q=33.0 size=    5154kB time=00:00:04.00 bitrate=10552.3kbits/s speed=0.0277x    frame=  175 fps=1.2 q=33.0 size=    5154kB time=00:00:04.04 bitrate=10442.7kbits/s speed=0.0278x    frame=  176 fps=1.2 q=33.0 size=    5154kB time=00:00:04.08 bitrate=10337.9kbits/s speed=0.0279x    frame=  177 fps=1.2 q=33.0 size=    5154kB time=00:00:04.12 bitrate=10232.6kbits/s speed=0.028x    frame=  178 fps=1.2 q=33.0 size=    5154kB time=00:00:04.16 bitrate=10129.5kbits/s speed=0.0277x    frame=  179 fps=1.2 q=33.0 size=    5154kB time=00:00:04.20 bitrate=10030.8kbits/s speed=0.0279x    frame=  180 fps=1.2 q=33.0 size=    5154kB time=00:00:04.25 bitrate=9931.7kbits/s speed=0.028x    frame=  181 fps=1.2 q=33.0 size=    5154kB time=00:00:04.29 bitrate=9834.6kbits/s speed=0.0282x    frame=  182 fps=1.2 q=33.0 size=    5154kB time=00:00:04.33 bitrate=9741.5kbits/s speed=0.0282x    frame=  184 fps=1.2 q=33.0 size=    5154kB time=00:00:04.41 bitrate=9556.3kbits/s speed=0.0284x    frame=  186 fps=1.2 q=33.0 size=    5154kB time=00:00:04.50 bitrate=9380.1kbits/s speed=0.0287x    frame=  187 fps=1.2 q=33.0 size=    5154kB time=00:00:04.54 bitrate=9293.4kbits/s speed=0.0287x    frame=  188 fps=1.2 q=33.0 size=    5154kB time=00:00:04.58 bitrate=9210.3kbits/s speed=0.0287x    frame=  189 fps=1.2 q=33.0 size=    5154kB time=00:00:04.62 bitrate=9126.6kbits/s speed=0.0288x    frame=  190 fps=1.2 q=32.0 size=    5154kB time=00:00:04.66 bitrate=9044.5kbits/s speed=0.0289x    frame=  191 fps=1.2 q=33.0 size=    5154kB time=00:00:04.70 bitrate=8965.8kbits/s speed=0.0291x    frame=  192 fps=1.2 q=32.0 size=    5154kB time=00:00:04.75 bitrate=8886.5kbits/s speed=0.0286x    frame=  193 fps=1.2 q=32.0 size=    5154kB time=00:00:04.79 bitrate=8808.6kbits/s speed=0.0287x    frame=  194 fps=1.2 q=32.0 size=    5154kB time=00:00:04.83 bitrate=8733.9kbits/s speed=0.0289x    frame=  196 fps=1.2 q=32.0 size=    5154kB time=00:00:04.91 bitrate=8584.8kbits/s speed=0.0291x    frame=  197 fps=1.2 q=32.0 size=    5154kB time=00:00:04.95 bitrate=8513.8kbits/s speed=0.0292x    frame=  198 fps=1.2 q=32.0 size=    5154kB time=00:00:05.00 bitrate=8442.3kbits/s speed=0.0291x    frame=  199 fps=1.1 q=32.0 size=    5154kB time=00:00:05.04 bitrate=8372.0kbits/s speed=0.029x    frame=  200 fps=1.1 q=32.0 size=    5154kB time=00:00:05.08 bitrate=8304.5kbits/s speed=0.0291x    frame=  201 fps=1.1 q=32.0 size=    5154kB time=00:00:05.12 bitrate=8236.4kbits/s speed=0.0292x    frame=  202 fps=1.1 q=32.0 size=    5154kB time=00:00:05.16 bitrate=8169.5kbits/s speed=0.0292x    frame=  203 fps=1.1 q=32.0 size=    5154kB time=00:00:05.20 bitrate=8105.2kbits/s speed=0.0293x    frame=  204 fps=1.1 q=32.0 size=    5154kB time=00:00:05.25 bitrate=8040.3kbits/s speed=0.0294x    frame=  205 fps=1.1 q=32.0 size=    5154kB time=00:00:05.29 bitrate=7976.5kbits/s speed=0.0294x    frame=  206 fps=1.1 q=32.0 size=    5154kB time=00:00:05.33 bitrate=7915.2kbits/s speed=0.0294x    frame=  207 fps=1.1 q=32.0 size=    5154kB time=00:00:05.37 bitrate=7853.4kbits/s speed=0.0295x    frame=  208 fps=1.1 q=32.0 size=    5154kB time=00:00:05.41 bitrate=7792.5kbits/s speed=0.0296x    frame=  209 fps=1.1 q=32.0 size=    5154kB time=00:00:05.45 bitrate=7734.0kbits/s speed=0.0296x    frame=  210 fps=1.1 q=32.0 size=    5154kB time=00:00:05.50 bitrate=7674.9kbits/s speed=0.0298x    frame=  211 fps=1.1 q=32.0 size=    5154kB time=00:00:05.54 bitrate=7616.8kbits/s speed=0.0297x    frame=  212 fps=1.1 q=32.0 size=    5154kB time=00:00:05.58 bitrate=7560.9kbits/s speed=0.0298x    frame=  213 fps=1.1 q=32.0 size=    5154kB time=00:00:05.62 bitrate=7504.4kbits/s speed=0.0299x    frame=  214 fps=1.1 q=32.0 size=    5154kB time=00:00:05.66 bitrate=7448.8kbits/s speed=0.03x    frame=  215 fps=1.1 q=32.0 size=    5154kB time=00:00:05.70 bitrate=7395.3kbits/s speed=0.0301x    frame=  216 fps=1.1 q=32.0 size=    5154kB time=00:00:05.75 bitrate=7341.3kbits/s speed=0.0302x    frame=  217 fps=1.1 q=32.0 size=    5154kB time=00:00:05.79 bitrate=7288.1kbits/s speed=0.0302x    frame=  218 fps=1.1 q=32.0 size=    5154kB time=00:00:05.83 bitrate=7236.9kbits/s speed=0.0302x    frame=  219 fps=1.1 q=32.0 size=    5154kB time=00:00:05.87 bitrate=7185.1kbits/s speed=0.0303x    frame=  220 fps=1.1 q=32.0 size=    5154kB time=00:00:05.91 bitrate=7134.1kbits/s speed=0.0303x    frame=  221 fps=1.1 q=32.0 size=    5154kB time=00:00:05.95 bitrate=7085.1kbits/s speed=0.0304x    frame=  222 fps=1.1 q=32.0 size=    5154kB time=00:00:06.00 bitrate=7035.5kbits/s speed=0.0304x    frame=  223 fps=1.1 q=32.0 size=    5154kB time=00:00:06.04 bitrate=6986.6kbits/s speed=0.0306x    frame=  224 fps=1.1 q=32.0 size=    5154kB time=00:00:06.08 bitrate=6939.5kbits/s speed=0.0305x    frame=  225 fps=1.1 q=32.0 size=    5154kB time=00:00:06.12 bitrate=6891.9kbits/s speed=0.0306x    frame=  226 fps=1.1 q=32.0 size=    5154kB time=00:00:06.16 bitrate=6845.0kbits/s speed=0.0307x    frame=  227 fps=1.1 q=32.0 size=    5154kB time=00:00:06.20 bitrate=6799.8kbits/s speed=0.0306x    frame=  229 fps=1.1 q=32.0 size=    5154kB time=00:00:06.29 bitrate=6709.0kbits/s speed=0.0308x    frame=  230 fps=1.1 q=32.0 size=    5154kB time=00:00:06.33 bitrate=6665.6kbits/s speed=0.0309x    frame=  233 fps=1.1 q=32.0 size=    5154kB time=00:00:06.45 bitrate=6536.6kbits/s speed=0.0307x    frame=  234 fps=1.1 q=32.0 size=    5154kB time=00:00:06.50 bitrate=6494.4kbits/s speed=0.0309x    frame=  235 fps=1.1 q=32.0 size=    5154kB time=00:00:06.54 bitrate=6452.7kbits/s speed=0.031x    frame=  236 fps=1.1 q=32.0 size=    5154kB time=00:00:06.58 bitrate=6412.5kbits/s speed=0.0311x    frame=  237 fps=1.1 q=32.0 size=    5154kB time=00:00:06.62 bitrate=6371.8kbits/s speed=0.0312x    frame=  238 fps=1.1 q=32.0 size=    5154kB time=00:00:06.66 bitrate=6331.7kbits/s speed=0.0313x    frame=  239 fps=1.1 q=32.0 size=    5154kB time=00:00:06.70 bitrate=6293.0kbits/s speed=0.031x    frame=  240 fps=1.1 q=31.0 size=   10278kB time=00:00:06.75 bitrate=12471.7kbits/s speed=0.0311x    frame=  241 fps=1.1 q=31.0 size=   10278kB time=00:00:06.79 bitrate=12394.6kbits/s speed=0.0312x    frame=  242 fps=1.1 q=31.0 size=   10278kB time=00:00:06.83 bitrate=12320.3kbits/s speed=0.0312x    frame=  243 fps=1.1 q=31.0 size=   10278kB time=00:00:06.87 bitrate=12245.0kbits/s speed=0.0313x    frame=  245 fps=1.1 q=31.0 size=   10278kB time=00:00:06.95 bitrate=12099.0kbits/s speed=0.0314x    frame=  246 fps=1.1 q=31.0 size=   10278kB time=00:00:07.00 bitrate=12026.4kbits/s speed=0.0314x    frame=  247 fps=1.1 q=31.0 size=   10278kB time=00:00:07.04 bitrate=11954.7kbits/s speed=0.0314x    frame=  248 fps=1.1 q=31.0 size=   10278kB time=00:00:07.08 bitrate=11885.5kbits/s speed=0.0314x    frame=  249 fps=1.1 q=31.0 size=   10278kB time=00:00:07.12 bitrate=11815.4kbits/s speed=0.0315x    frame=  250 fps=1.1 q=31.0 size=   10278kB time=00:00:07.16 bitrate=11746.2kbits/s speed=0.0316x    frame=  251 fps=1.1 q=31.0 size=   10278kB time=00:00:07.20 bitrate=11679.4kbits/s speed=0.0316x    frame=  252 fps=1.1 q=31.0 size=   10278kB time=00:00:07.25 bitrate=11611.7kbits/s speed=0.0316x    frame=  253 fps=1.1 q=31.0 size=   10278kB time=00:00:07.29 bitrate=11544.9kbits/s speed=0.0317x    frame=  254 fps=1.1 q=31.0 size=   10278kB time=00:00:07.33 bitrate=11480.3kbits/s speed=0.0316x    frame=  255 fps=1.1 q=31.0 size=   10278kB time=00:00:07.37 bitrate=11415.0kbits/s speed=0.0316x    frame=  256 fps=1.1 q=31.0 size=   10278kB time=00:00:07.41 bitrate=11350.3kbits/s speed=0.0317x    frame=  257 fps=1.1 q=31.0 size=   10278kB time=00:00:07.45 bitrate=11287.9kbits/s speed=0.0318x    frame=  258 fps=1.1 q=31.0 size=   10278kB time=00:00:07.50 bitrate=11224.7kbits/s speed=0.0319x    frame=  259 fps=1.1 q=31.0 size=   10278kB time=00:00:07.54 bitrate=11162.2kbits/s speed=0.0319x    frame=  260 fps=1.1 q=31.0 size=   10278kB time=00:00:07.58 bitrate=11101.9kbits/s speed=0.0316x    frame=  261 fps=1.1 q=31.0 size=   10278kB time=00:00:07.62 bitrate=11040.7kbits/s speed=0.0317x    frame=  262 fps=1.1 q=31.0 size=   10278kB time=00:00:07.66 bitrate=10980.3kbits/s speed=0.0318x    frame=  265 fps=1.1 q=31.0 size=   10278kB time=00:00:07.79 bitrate=10804.1kbits/s speed=0.0322x    frame=  266 fps=1.1 q=31.0 size=   10278kB time=00:00:07.83 bitrate=10747.6kbits/s speed=0.0322x    frame=  267 fps=1.1 q=31.0 size=   10278kB time=00:00:07.87 bitrate=10690.3kbits/s speed=0.0319x    frame=  268 fps=1.1 q=31.0 size=   10278kB time=00:00:07.91 bitrate=10633.6kbits/s speed=0.032x    frame=  270 fps=1.1 q=31.0 size=   10278kB time=00:00:08.00 bitrate=10523.3kbits/s speed=0.0322x    frame=  271 fps=1.1 q=31.0 size=   10278kB time=00:00:08.04 bitrate=10468.3kbits/s speed=0.0323x    frame=  272 fps=1.1 q=31.0 size=   10278kB time=00:00:08.08 bitrate=10415.2kbits/s speed=0.0324x    frame=  273 fps=1.1 q=31.0 size=   10278kB time=00:00:08.12 bitrate=10361.4kbits/s speed=0.0322x    frame=  274 fps=1.1 q=31.0 size=   10278kB time=00:00:08.16 bitrate=10308.1kbits/s speed=0.0322x    frame=  275 fps=1.1 q=31.0 size=   10278kB time=00:00:08.20 bitrate=10256.6kbits/s speed=0.0322x    frame=  276 fps=1.1 q=31.0 size=   10278kB time=00:00:08.25 bitrate=10204.4kbits/s speed=0.0322x    frame=  277 fps=1.1 q=31.0 size=   10278kB time=00:00:08.29 bitrate=10152.7kbits/s speed=0.0323x    frame=  278 fps=1.1 q=31.0 size=   10278kB time=00:00:08.33 bitrate=10102.8kbits/s speed=0.0323x    frame=  279 fps=1.1 q=31.0 size=   10278kB time=00:00:08.37 bitrate=10052.1kbits/s speed=0.0323x    frame=  281 fps=1.1 q=31.0 size=   10278kB time=00:00:08.45 bitrate=9953.5kbits/s speed=0.0324x    frame=  282 fps=1.1 q=31.0 size=   10278kB time=00:00:08.50 bitrate=9904.3kbits/s speed=0.0325x    frame=  283 fps=1.1 q=31.0 size=   10278kB time=00:00:08.54 bitrate=9855.6kbits/s speed=0.0325x    frame=  284 fps=1.1 q=31.0 size=   10278kB time=00:00:08.58 bitrate=9808.6kbits/s speed=0.0323x    frame=  285 fps=1.1 q=31.0 size=   10278kB time=00:00:08.62 bitrate=9760.8kbits/s speed=0.0324x    frame=  288 fps=1.1 q=31.0 size=   10278kB time=00:00:08.75 bitrate=9621.4kbits/s speed=0.0327x    frame=  289 fps=1.1 q=31.0 size=   10278kB time=00:00:08.79 bitrate=9575.4kbits/s speed=0.0327x    frame=  290 fps=1.1 q=31.0 size=   10278kB time=00:00:08.83 bitrate=9531.0kbits/s speed=0.0327x    frame=  291 fps=1.1 q=31.0 size=   10278kB time=00:00:08.87 bitrate=9485.9kbits/s speed=0.0328x    frame=  292 fps=1.1 q=31.0 size=   10278kB time=00:00:08.91 bitrate=9441.2kbits/s speed=0.0326x    frame=  294 fps=1.1 q=31.0 size=   10278kB time=00:00:09.00 bitrate=9354.2kbits/s speed=0.0328x    frame=  295 fps=1.1 q=31.0 size=   10278kB time=00:00:09.04 bitrate=9310.7kbits/s speed=0.0329x    frame=  296 fps=1.1 q=31.0 size=   10278kB time=00:00:09.08 bitrate=9268.7kbits/s speed=0.0329x    frame=  297 fps=1.1 q=31.0 size=   10278kB time=00:00:09.12 bitrate=9226.0kbits/s speed=0.033x    frame=  298 fps=1.1 q=31.0 size=   10278kB time=00:00:09.16 bitrate=9183.8kbits/s speed=0.0327x    frame=  300 fps=1.1 q=31.0 size=   10278kB time=00:00:09.25 bitrate=9101.4kbits/s speed=0.0329x    frame=  303 fps=1.1 q=30.0 size=   10278kB time=00:00:09.37 bitrate=8980.0kbits/s speed=0.0331x    frame=  304 fps=1.1 q=30.0 size=   10278kB time=00:00:09.41 bitrate=8940.0kbits/s speed=0.033x    frame=  305 fps=1.1 q=30.0 size=   10278kB time=00:00:09.45 bitrate=8901.2kbits/s speed=0.033x    frame=  307 fps=1.1 q=30.0 size=   10278kB time=00:00:09.54 bitrate=8822.9kbits/s speed=0.0332x    frame=  309 fps=1.1 q=30.0 size=   10278kB time=00:00:09.62 bitrate=8746.8kbits/s speed=0.0331x    frame=  310 fps=1.1 q=30.0 size=   10278kB time=00:00:09.66 bitrate=8708.8kbits/s speed=0.0332x    frame=  312 fps=1.1 q=30.0 size=   10278kB time=00:00:09.75 bitrate=8634.7kbits/s speed=0.0332x    frame=  313 fps=1.1 q=30.0 size=   10278kB time=00:00:09.79 bitrate=8597.6kbits/s speed=0.0333x    frame=  314 fps=1.1 q=30.0 size=   10278kB time=00:00:09.83 bitrate=8561.8kbits/s speed=0.0334x    frame=  317 fps=1.1 q=30.0 size=   10278kB time=00:00:09.95 bitrate=8454.3kbits/s speed=0.0337x    frame=  318 fps=1.1 q=30.0 size=   10278kB time=00:00:10.00 bitrate=8418.8kbits/s speed=0.0336x    frame=  319 fps=1.1 q=30.0 size=   10278kB time=00:00:10.04 bitrate=8383.6kbits/s speed=0.0337x    frame=  320 fps=1.1 q=30.0 size=   10278kB time=00:00:10.08 bitrate=8349.5kbits/s speed=0.0337x    frame=  321 fps=1.1 q=28.0 size=   10278kB time=00:00:10.12 bitrate=8314.9kbits/s speed=0.0337x    frame=  322 fps=1.1 q=30.0 size=   10278kB time=00:00:10.16 bitrate=8280.6kbits/s speed=0.0337x    frame=  324 fps=1.1 q=30.0 size=   10278kB time=00:00:10.25 bitrate=8213.5kbits/s speed=0.0338x    frame=  326 fps=1.1 q=30.0 size=   15045kB time=00:00:10.33 bitrate=11926.3kbits/s speed=0.034x    frame=  329 fps=1.1 q=30.0 size=   15045kB time=00:00:10.45 bitrate=11783.7kbits/s speed=0.0343x    frame=  333 fps=1.1 q=30.0 size=   15045kB time=00:00:10.62 bitrate=11598.5kbits/s speed=0.0348x    frame=  334 fps=1.1 q=30.0 size=   15045kB time=00:00:10.66 bitrate=11552.9kbits/s speed=0.0348x    frame=  337 fps=1.1 q=30.0 size=   15045kB time=00:00:10.79 bitrate=11419.1kbits/s speed=0.0351x    frame=  340 fps=1.1 q=30.0 size=   15045kB time=00:00:10.91 bitrate=11288.3kbits/s speed=0.0353x    frame=  343 fps=1.1 q=30.0 size=   15045kB time=00:00:11.04 bitrate=11160.6kbits/s speed=0.0355x    frame=  345 fps=1.1 q=30.0 size=   15045kB time=00:00:11.12 bitrate=11077.3kbits/s speed=0.0357x    frame=  346 fps=1.1 q=30.0 size=   15045kB time=00:00:11.16 bitrate=11035.6kbits/s speed=0.0356x    frame=  348 fps=1.1 q=30.0 size=   15045kB time=00:00:11.25 bitrate=10954.2kbits/s speed=0.0358x    frame=  349 fps=1.1 q=30.0 size=   15045kB time=00:00:11.29 bitrate=10913.5kbits/s speed=0.0357x    frame=  350 fps=1.1 q=30.0 size=   15045kB time=00:00:11.33 bitrate=10874.0kbits/s speed=0.0357x    frame=  353 fps=1.1 q=29.0 size=   15045kB time=00:00:11.45 bitrate=10755.4kbits/s speed=0.0359x    frame=  354 fps=1.1 q=29.0 size=   15045kB time=00:00:11.50 bitrate=10716.1kbits/s speed=0.036x    frame=  355 fps=1.1 q=29.0 size=   15045kB time=00:00:11.54 bitrate=10677.1kbits/s speed=0.036x    frame=  356 fps=1.1 q=29.0 size=   15045kB time=00:00:11.58 bitrate=10639.3kbits/s speed=0.0361x    frame=  357 fps=1.1 q=29.0 size=   15045kB time=00:00:11.62 bitrate=10600.9kbits/s speed=0.0359x    frame=  359 fps=1.1 q=29.0 size=   15045kB time=00:00:11.70 bitrate=10525.7kbits/s speed=0.0361x    frame=  360 fps=1.1 q=29.0 size=   15045kB time=00:00:11.75 bitrate=10488.1kbits/s speed=0.0361x    frame=  362 fps=1.1 q=29.0 size=   15045kB time=00:00:11.83 bitrate=10414.6kbits/s speed=0.0362x    frame=  363 fps=1.1 q=29.0 size=   15045kB time=00:00:11.87 bitrate=10377.7kbits/s speed=0.0363x    frame=  364 fps=1.1 q=29.0 size=   15045kB time=00:00:11.91 bitrate=10341.2kbits/s speed=0.0361x    frame=  366 fps=1.1 q=29.0 size=   15045kB time=00:00:12.00 bitrate=10269.6kbits/s speed=0.0363x    frame=  370 fps=1.1 q=29.0 size=   15045kB time=00:00:12.16 bitrate=10128.7kbits/s speed=0.0365x    frame=  372 fps=1.1 q=29.0 size=   15045kB time=00:00:12.25 bitrate=10060.1kbits/s speed=0.0365x    frame=  374 fps=1.1 q=29.0 size=   15045kB time=00:00:12.33 bitrate=9992.4kbits/s speed=0.0367x    frame=  376 fps=1.1 q=29.0 size=   15045kB time=00:00:12.41 bitrate=9924.8kbits/s speed=0.0368x    frame=  378 fps=1.1 q=29.0 size=   15045kB time=00:00:12.50 bitrate=9858.9kbits/s speed=0.0369x    frame=  379 fps=1.1 q=29.0 size=   15045kB time=00:00:12.54 bitrate=9825.9kbits/s speed=0.0369x    frame=  382 fps=1.1 q=28.0 size=   15045kB time=00:00:12.66 bitrate=9728.9kbits/s speed=0.037x    frame=  386 fps=1.1 q=29.0 size=   15045kB time=00:00:12.83 bitrate=9603.1kbits/s speed=0.0374x    frame=  388 fps=1.1 q=28.0 size=   15045kB time=00:00:12.91 bitrate=9540.6kbits/s speed=0.0373x    frame=  390 fps=1.1 q=28.0 size=   15045kB time=00:00:13.00 bitrate=9479.7kbits/s speed=0.0374x    frame=  393 fps=1.1 q=28.0 size=   15045kB time=00:00:13.12 bitrate=9389.5kbits/s speed=0.0377x    frame=  394 fps=1.1 q=28.0 size=   15045kB time=00:00:13.16 bitrate=9359.5kbits/s speed=0.0375x    frame=  399 fps=1.1 q=28.0 size=   15045kB time=00:00:13.37 bitrate=9214.0kbits/s speed=0.0379x    frame=  400 fps=1.1 q=28.0 size=   15045kB time=00:00:13.41 bitrate=9185.1kbits/s speed=0.0379x    frame=  404 fps=1.1 q=28.0 size=   15045kB time=00:00:13.58 bitrate=9072.9kbits/s speed=0.0382x    frame=  405 fps=1.1 q=28.0 size=   15045kB time=00:00:13.62 bitrate=9044.9kbits/s speed=0.0382x    frame=  406 fps=1.1 q=28.0 size=   15045kB time=00:00:13.66 bitrate=9017.1kbits/s speed=0.0383x    frame=  407 fps=1.1 q=28.0 size=   15045kB time=00:00:13.70 bitrate=8990.2kbits/s speed=0.0383x    frame=  408 fps=1.1 q=28.0 size=   15045kB time=00:00:13.75 bitrate=8962.7kbits/s speed=0.0382x    frame=  413 fps=1.1 q=27.0 size=   15045kB time=00:00:13.95 bitrate=8829.1kbits/s speed=0.0386x    frame=  414 fps=1.1 q=27.0 size=   15045kB time=00:00:14.00 bitrate=8802.7kbits/s speed=0.0385x    frame=  419 fps=1.1 q=27.0 size=   15045kB time=00:00:14.20 bitrate=8673.8kbits/s speed=0.0388x    frame=  423 fps=1.2 q=27.0 size=   15045kB time=00:00:14.37 bitrate=8573.0kbits/s speed=0.0392x    frame=  425 fps=1.1 q=27.0 size=   15045kB time=00:00:14.45 bitrate=8523.8kbits/s speed=0.039x    frame=  427 fps=1.1 q=27.0 size=   15045kB time=00:00:14.54 bitrate=8474.6kbits/s speed=0.0392x    frame=  430 fps=1.2 q=27.0 size=   15045kB time=00:00:14.66 bitrate=8402.4kbits/s speed=0.0394x    frame=  431 fps=1.2 q=27.0 size=   15045kB time=00:00:14.70 bitrate=8379.0kbits/s speed=0.0393x    frame=  437 fps=1.2 q=26.0 size=   15045kB time=00:00:14.95 bitrate=8238.9kbits/s speed=0.0397x    frame=  439 fps=1.1 q=26.0 size=   15045kB time=00:00:15.04 bitrate=8192.9kbits/s speed=0.0393x    frame=  441 fps=1.2 q=26.0 size=   15045kB time=00:00:15.12 bitrate=8148.0kbits/s speed=0.0395x    frame=  443 fps=1.2 q=26.0 size=   20217kB time=00:00:15.20 bitrate=10889.3kbits/s speed=0.0396x    frame=  445 fps=1.2 q=26.0 size=   20217kB time=00:00:15.29 bitrate=10829.5kbits/s speed=0.0396x    frame=  446 fps=1.1 q=26.0 size=   20217kB time=00:00:15.33 bitrate=10800.5kbits/s speed=0.0394x    frame=  448 fps=1.1 q=26.0 size=   20217kB time=00:00:15.41 bitrate=10741.7kbits/s speed=0.0395x    frame=  449 fps=1.1 q=26.0 size=   20217kB time=00:00:15.45 bitrate=10713.2kbits/s speed=0.0396x    frame=  450 fps=1.2 q=26.0 size=   20217kB time=00:00:15.50 bitrate=10684.2kbits/s speed=0.0396x    frame=  452 fps=1.1 q=26.0 size=   20217kB time=00:00:15.58 bitrate=10627.3kbits/s speed=0.0395x    frame=  453 fps=1.1 q=26.0 size=   20217kB time=00:00:15.62 bitrate=10598.7kbits/s speed=0.0395x    frame=  454 fps=1.1 q=26.0 size=   20217kB time=00:00:15.66 bitrate=10570.3kbits/s speed=0.0395x    frame=  455 fps=1.1 q=26.0 size=   20217kB time=00:00:15.70 bitrate=10542.7kbits/s speed=0.0395x    frame=  456 fps=1.1 q=26.0 size=   20217kB time=00:00:15.75 bitrate=10514.6kbits/s speed=0.0396x    frame=  458 fps=1.1 q=26.0 size=   20217kB time=00:00:15.83 bitrate=10459.5kbits/s speed=0.0397x    frame=  459 fps=1.1 q=26.0 size=   20217kB time=00:00:15.87 bitrate=10431.8kbits/s speed=0.0395x    frame=  461 fps=1.1 q=26.0 size=   20217kB time=00:00:15.95 bitrate=10377.5kbits/s speed=0.0396x    frame=  463 fps=1.1 q=26.0 size=   20217kB time=00:00:16.04 bitrate=10323.2kbits/s speed=0.0398x    frame=  464 fps=1.1 q=26.0 size=   20217kB time=00:00:16.08 bitrate=10296.9kbits/s speed=0.0395x    frame=  465 fps=1.1 q=26.0 size=   20217kB time=00:00:16.12 bitrate=10270.1kbits/s speed=0.0395x    frame=  466 fps=1.1 q=26.0 size=   20217kB time=00:00:16.16 bitrate=10243.4kbits/s speed=0.0396x    frame=  468 fps=1.1 q=26.0 size=   20217kB time=00:00:16.25 bitrate=10191.1kbits/s speed=0.0393x    frame=  469 fps=1.1 q=26.0 size=   20217kB time=00:00:16.29 bitrate=10164.8kbits/s speed=0.0394x    frame=  470 fps=1.1 q=26.0 size=   20217kB time=00:00:16.33 bitrate=10139.3kbits/s speed=0.0394x    frame=  471 fps=1.1 q=26.0 size=   20217kB time=00:00:16.37 bitrate=10113.3kbits/s speed=0.0393x    frame=  473 fps=1.1 q=26.0 size=   20217kB time=00:00:16.45 bitrate=10062.3kbits/s speed=0.0394x    frame=  474 fps=1.1 q=26.0 size=   20217kB time=00:00:16.50 bitrate=10036.7kbits/s speed=0.0395x    frame=  475 fps=1.1 q=26.0 size=   20217kB time=00:00:16.54 bitrate=10011.2kbits/s speed=0.0394x    frame=  476 fps=1.1 q=26.0 size=   20217kB time=00:00:16.58 bitrate=9986.4kbits/s speed=0.0392x    frame=  478 fps=1.1 q=26.0 size=   20217kB time=00:00:16.66 bitrate=9936.1kbits/s speed=0.0394x    frame=  481 fps=1.1 q=26.0 size=   20217kB time=00:00:16.79 bitrate=9862.2kbits/s speed=0.0395x    frame=  482 fps=1.1 q=26.0 size=   20217kB time=00:00:16.83 bitrate=9838.1kbits/s speed=0.0393x    frame=  484 fps=1.1 q=26.0 size=   20217kB time=00:00:16.91 bitrate=9789.3kbits/s speed=0.0394x    frame=  485 fps=1.1 q=26.0 size=   20217kB time=00:00:16.95 bitrate=9765.6kbits/s speed=0.0394x    frame=  487 fps=1.1 q=27.0 size=   20217kB time=00:00:17.04 bitrate=9717.5kbits/s speed=0.0396x    frame=  488 fps=1.1 q=26.0 size=   20217kB time=00:00:17.08 bitrate=9694.2kbits/s speed=0.0394x    frame=  489 fps=1.1 q=27.0 size=   20217kB time=00:00:17.12 bitrate=9670.4kbits/s speed=0.0394x    frame=  491 fps=1.1 q=26.0 size=   20217kB time=00:00:17.20 bitrate=9623.8kbits/s speed=0.0396x    frame=  494 fps=1.1 q=27.0 size=   20217kB time=00:00:17.33 bitrate=9554.4kbits/s speed=0.0393x    frame=  497 fps=1.1 q=26.0 size=   20217kB time=00:00:17.45 bitrate=9486.0kbits/s speed=0.0395x    frame=  498 fps=1.1 q=26.0 size=   20217kB time=00:00:17.50 bitrate=9463.2kbits/s speed=0.0395x    frame=  499 fps=1.1 q=26.0 size=   20217kB time=00:00:17.54 bitrate=9440.5kbits/s speed=0.0395x    frame=  500 fps=1.1 q=27.0 size=   20217kB time=00:00:17.58 bitrate=9418.5kbits/s speed=0.0394x    frame=  500 fps=1.0 q=-1.0 Lsize=   29228kB time=00:00:20.70 bitrate=11561.9kbits/s speed=0.0412x    
video:29223kB audio:0kB subtitle:0kB other streams:0kB global headers:0kB muxing overhead: 0.016338%
bench: utime=1857.288s
bench: maxrss=2805436kB
[libx264 @ 0x2d331c0] frame I:3     Avg QP:20.81  size:301606
[libx264 @ 0x2d331c0] frame P:268   Avg QP:28.25  size: 75379
[libx264 @ 0x2d331c0] frame B:229   Avg QP:28.02  size: 38504
[libx264 @ 0x2d331c0] consecutive B-frames: 36.2%  7.6% 18.0% 17.6% 11.0%  9.6%  0.0%  0.0%  0.0%
[libx264 @ 0x2d331c0] mb I  I16..4: 10.8% 79.9%  9.4%
[libx264 @ 0x2d331c0] mb P  I16..4: 19.0% 22.5%  0.5%  P16..4: 32.3%  3.5%  2.4%  0.0%  0.0%    skip:19.7%
[libx264 @ 0x2d331c0] mb B  I16..4:  1.1%  2.4%  0.2%  B16..8: 33.9%  4.1%  0.8%  direct: 1.8%  skip:55.8%  L0:44.0% L1:51.5% BI: 4.5%
[libx264 @ 0x2d331c0] final ratefactor: 23.76
[libx264 @ 0x2d331c0] 8x8 transform intra:55.0% inter:86.4%
[libx264 @ 0x2d331c0] direct mvs  spatial:99.1% temporal:0.9%
[libx264 @ 0x2d331c0] coded y,uvDC,uvAC intra: 19.5% 23.2% 2.3% inter: 7.9% 6.4% 0.2%
[libx264 @ 0x2d331c0] i16 v,h,dc,p: 20% 24% 11% 45%
[libx264 @ 0x2d331c0] i8 v,h,dc,ddl,ddr,vr,hd,vl,hu: 15% 14% 20%  7%  9%  9% 10%  7% 10%
[libx264 @ 0x2d331c0] i4 v,h,dc,ddl,ddr,vr,hd,vl,hu: 14% 16%  7%  7% 13% 11% 14%  7% 11%
[libx264 @ 0x2d331c0] i8c dc,h,v,p: 55% 26% 13%  6%
[libx264 @ 0x2d331c0] Weighted P-Frames: Y:1.5% UV:1.1%
[libx264 @ 0x2d331c0] ref P L0: 63.8% 16.6%  8.5%  3.0%  1.7%  1.4%  1.1%  0.7%  0.6%  0.6%  0.4%  0.4%  0.3%  0.3%  0.3%  0.2%
[libx264 @ 0x2d331c0] ref B L0: 87.0%  6.3%  2.5%  1.1%  0.8%  0.6%  0.4%  0.3%  0.3%  0.2%  0.2%  0.1%  0.1%  0.1%  0.1%
[libx264 @ 0x2d331c0] ref B L1: 98.1%  1.9%
[libx264 @ 0x2d331c0] kb/s:11490.71
